<?xml version="1.0" encoding="UTF-8" standalone="no"?>
<!DOCTYPE svg PUBLIC "-//W3C//DTD SVG 1.1//EN" "http://www.w3.org/Graphics/SVG/1.1/DTD/svg11.dtd">
<svg width="100%" height="100%" viewBox="0 0 444 112" version="1.1" xmlns="http://www.w3.org/2000/svg" xmlns:xlink="http://www.w3.org/1999/xlink" xml:space="preserve" xmlns:serif="http://www.serif.com/" style="fill-rule:evenodd;clip-rule:evenodd;stroke-linejoin:round;stroke-miterlimit:2;">
    <g transform="matrix(1.73332,0,0,1.73332,144.154,36.3508)">
        <path d="M0,23.271C7.453,23.271 12.333,18.82 12.333,11.636C12.333,4.45 7.453,0 0,0L-7.936,0L-7.936,23.271L0,23.271ZM-16.622,-7.131L0.429,-7.131C12.708,-7.131 21.126,0.269 21.126,11.636C21.126,23.003 12.708,30.402 0.429,30.402L-16.622,30.402L-16.622,-7.131Z" style="fill:rgb(126,90,224);fill-rule:nonzero;"/>
    </g>
    <g transform="matrix(1.73332,0,0,1.73332,199.925,68.4155)">
        <path d="M0,-5.04L14.209,-5.04C13.619,-8.686 10.885,-11.046 7.131,-11.046C3.324,-11.046 0.59,-8.74 0,-5.04M21.93,-0.162L0.107,-0.162C0.912,3.432 3.968,5.629 8.365,5.629C11.421,5.629 13.619,4.719 15.603,2.842L20.054,7.667C17.373,10.723 13.351,12.333 8.15,12.333C-1.823,12.333 -8.311,6.059 -8.311,-2.521C-8.311,-11.153 -1.716,-17.373 7.078,-17.373C15.55,-17.373 22.091,-11.689 22.091,-2.414C22.091,-1.769 21.984,-0.859 21.93,-0.162" style="fill:rgb(126,90,224);fill-rule:nonzero;"/>
    </g>
    <g transform="matrix(1.73332,0,0,1.73332,307.741,89.0476)">
        <path d="M0,-37.533L-16.247,0L-24.826,0L-41.019,-37.533L-31.635,-37.533L-20.214,-10.723L-8.633,-37.533L0,-37.533Z" style="fill:rgb(126,90,224);fill-rule:nonzero;"/>
    </g>
    <g transform="matrix(1.73332,0,0,1.73332,317.227,68.4155)">
        <path d="M0,-5.04L14.209,-5.04C13.619,-8.686 10.885,-11.046 7.131,-11.046C3.324,-11.046 0.59,-8.74 0,-5.04M21.93,-0.162L0.107,-0.162C0.912,3.432 3.968,5.629 8.365,5.629C11.421,5.629 13.619,4.719 15.603,2.842L20.054,7.667C17.373,10.723 13.351,12.333 8.15,12.333C-1.823,12.333 -8.311,6.059 -8.311,-2.521C-8.311,-11.153 -1.716,-17.373 7.078,-17.373C15.55,-17.373 22.091,-11.689 22.091,-2.414C22.091,-1.769 21.984,-0.859 21.93,-0.162" style="fill:rgb(126,90,224);fill-rule:nonzero;"/>
    </g>
    <g transform="matrix(1.73332,0,0,1.73332,358.496,43.6918)">
        <path d="M0,23.487L2.788,17.481C5.362,19.143 9.276,20.268 12.815,20.268C16.676,20.268 18.124,19.251 18.124,17.641C18.124,12.923 0.697,17.749 0.697,6.221C0.697,0.751 5.63,-3.109 14.048,-3.109C18.016,-3.109 22.413,-2.197 25.147,-0.589L22.359,5.362C19.518,3.754 16.676,3.218 14.048,3.218C10.295,3.218 8.687,4.398 8.687,5.899C8.687,10.832 26.113,6.06 26.113,17.426C26.113,22.79 21.126,26.596 12.494,26.596C7.614,26.596 2.681,25.257 0,23.487" style="fill:rgb(126,90,224);fill-rule:nonzero;"/>
    </g>
    <g transform="matrix(1.73332,0,0,1.73332,443.075,31.1481)">
        <path d="M0,32.009C-1.716,33.243 -4.236,33.833 -6.81,33.833C-13.619,33.833 -17.587,30.347 -17.587,23.484L-17.587,11.634L-22.037,11.634L-22.037,5.2L-17.587,5.2L-17.587,-1.824L-9.222,-1.824L-9.222,5.2L-2.037,5.2L-2.037,11.634L-9.222,11.634L-9.222,23.378C-9.222,25.843 -7.882,27.185 -5.63,27.185C-4.396,27.185 -3.163,26.81 -2.252,26.113L0,32.009Z" style="fill:rgb(126,90,224);fill-rule:nonzero;"/>
    </g>
    <g transform="matrix(-0.866023,-0.500004,-0.500004,0.866023,20.7577,9.82928)">
        <path d="M-74.508,1.866L22.891,1.866L9.457,25.136L-87.943,25.136C-93.914,14.794 -86.45,1.866 -74.508,1.866" style="fill:rgb(126,90,224);fill-rule:nonzero;"/>
    </g>
    <g transform="matrix(1,0,0,1,23.269,69.8653)">
        <path d="M0,14.1L0,-18.646L-23.269,-32.08L-23.269,24.804C-23.269,37.959 -9.028,46.18 2.364,39.603L51.628,11.161L28.359,-2.273L0,14.1Z" style="fill:rgb(83,69,155);fill-rule:nonzero;"/>
    </g>
</svg>
